# xmcd
#
# Track frame offsets:
#	150
#	13190
#	28002
#	41519
#	57070
#	74589
#	88645
#	100893
#	116392
#	138572
#	153776
#	169133
#	182562
#	201353
#	215292
#	227709
#	241643
#	252772
#	265855
#	281121
#
# Disc length: 3855 seconds
#
# Revision: 1
# Processed by: cddbd v1.5PL3 Copyright (c) Steve Scherf et al.
# Submitted via: audiograbber 1.80.04
#
DISCID=130f0d14
DTITLE=Various Artist - Texas Dancehall Party
DYEAR=1900
DGENRE=Rock
TTITLE0=South of Round Rock, Texas
TTITLE1=A Day Late and a Darlin' Short
TTITLE2=Good Thing You Love Me
TTITLE3=Your Jealousy
TTITLE4=The Wall
TTITLE5=A Little Further in the Hole
TTITLE6=Butterbean
TTITLE7=South Texsa Highway
TTITLE8=Magnolia
TTITLE9=You Broke the Rules
TTITLE10=She Knows My Weaknesses
TTITLE11=Sad and Lonesome Song
TTITLE12=Rock-a-Bye Boogie
TTITLE13=All Night Texas Turnaround
TTITLE14=Big Blue Teardrops
TTITLE15=Night Before I Wed
TTITLE16=Fishin' Man
TTITLE17=Real Bad
TTITLE18=If You Don't Want to See Me Going
TTITLE19=A-Town Blues
EXTD=
EXTT0=
EXTT1=
EXTT2=
EXTT3=
EXTT4=
EXTT5=
EXTT6=
EXTT7=
EXTT8=
EXTT9=
EXTT10=
EXTT11=
EXTT12=
EXTT13=
EXTT14=
EXTT15=
EXTT16=
EXTT17=
EXTT18=
EXTT19=
PLAYORDER=
